<svg
  width="42"
  height="42"
  viewBox="0 0 68 69"
  fill="none"
  xmlns="http://www.w3.org/2000/svg"
>
<path
    fill-rule="evenodd"
    clip-rule="evenodd"
    d="M27.9062 24.7049C28.9037 13.0913 31.6202 4.43009 34.9134 3.06099C38.2178 4.43476 40.9416 13.1503 41.9307 24.8233C39.388 24.6371 36.7309 24.5384 33.9969 24.5384C31.9167 24.5384 29.8809 24.5955 27.9062 24.7049ZM27.3302 34.5383C27.3302 30.8564 30.315 27.8717 33.9969 27.8717C37.6788 27.8717 40.6636 30.8564 40.6636 34.5383C40.6636 38.2202 37.6788 41.205 33.9969 41.205C30.315 41.205 27.3302 38.2202 27.3302 34.5383ZM39.7259 26.341C40.5138 26.3789 41.2915 26.4245 42.0578 26.4774C42.1107 27.2437 42.1563 28.0214 42.1942 28.8093C41.5221 27.8495 40.6858 27.0131 39.7259 26.341ZM43.9969 34.5383C43.9969 31.8043 43.8981 29.1472 43.7119 26.6045C46.6683 26.855 49.435 27.2167 51.9407 27.671C51.9511 27.7613 51.9614 27.8518 51.9713 27.9424C50.3317 32.369 48.1362 35.7168 45.626 37.4427C45.5937 38.6902 45.5408 39.9181 45.4684 41.1225C48.0829 40.1854 50.4456 37.5081 52.3235 33.6242C52.3279 33.9279 52.3302 34.2327 52.3302 34.5383C52.3302 36.8924 52.196 39.1894 51.9408 41.4056C49.435 41.8598 46.6683 42.2216 43.7119 42.4721C43.8981 39.9294 43.9969 37.2723 43.9969 34.5383ZM43.5776 24.9576C42.6565 14.7073 40.2952 6.53116 37.2769 3.03942C52.1465 4.56959 63.9656 16.3887 65.4958 31.2583C62.004 28.24 53.8279 25.8787 43.5776 24.9576ZM55.6634 34.5383C55.6634 32.4361 55.5563 30.3792 55.3517 28.3849C61.6885 29.9087 65.6636 32.1014 65.6636 34.5383C65.6636 36.9752 61.6885 39.1679 55.3517 40.6917C55.5563 38.6974 55.6634 36.6406 55.6634 34.5383ZM39.7259 42.7356C40.6857 42.0635 41.5221 41.2271 42.1942 40.2673C42.1563 41.0552 42.1108 41.8329 42.0578 42.5992C41.2915 42.6521 40.5138 42.6977 39.7259 42.7356ZM26.0631 44.2533C28.6058 44.4395 31.2629 44.5383 33.9969 44.5383C36.7309 44.5383 39.388 44.4395 41.9307 44.2533C40.8515 56.9896 37.7073 66.205 33.9969 66.205C30.2865 66.205 27.1423 56.9895 26.0631 44.2533ZM43.5777 44.119C46.4826 43.8579 49.221 43.4812 51.7334 43.0067C50.2594 53.2399 46.1774 61.5542 40.8565 65.46C39.6863 65.7184 38.4918 65.9122 37.2769 66.0372C40.2952 62.5455 42.6565 54.3693 43.5777 44.119ZM24.282 26.6045C24.0958 29.1472 23.997 31.8043 23.9969 34.5383C23.9969 37.9301 25.6855 40.9274 28.2679 42.7356C13.5137 42.0261 2.33024 38.6258 2.33024 34.5383C2.33024 30.8279 11.5456 27.6837 24.282 26.6045ZM27.7728 26.4228C27.9378 26.3955 28.1029 26.3683 28.2679 26.341C28.0917 26.4644 27.9197 26.5933 27.752 26.7275C27.7588 26.6257 27.7658 26.5242 27.7728 26.4228ZM0.663574 34.5383C0.663574 52.9478 15.5874 67.8716 33.9969 67.8716C52.4064 67.8716 67.3302 52.9478 67.3302 34.5383C67.3302 16.1288 52.4064 1.20496 33.9969 1.20496C15.5874 1.20496 0.663574 16.1288 0.663574 34.5383ZM30.7169 3.03942C27.6986 6.53116 25.3374 14.7073 24.4162 24.9576C14.1659 25.8787 5.98978 28.24 2.49804 31.2583C4.02821 16.3887 15.8473 4.56956 30.7169 3.03942ZM2.49804 37.8183C5.98978 40.8366 14.1659 43.1979 24.4162 44.1191C25.3373 54.3693 27.6986 62.5454 30.7169 66.0372C15.8473 64.507 4.02821 52.6879 2.49804 37.8183ZM46.1136 63.8042C50.6054 59.3381 53.9564 51.5529 55.1687 42.2625C59.8524 41.1058 63.4657 39.5731 65.4958 37.8183C64.2846 49.5879 56.6274 59.4464 46.1136 63.8042Z"
    fill="#F18D16"
    stroke="#2B2A29"
    stroke-width="0.755906"
    stroke-miterlimit="22.9256"
  />
</svg>
