<svg width="1311" height="898" viewBox="0 0 1311 898" fill="none" xmlns="http://www.w3.org/2000/svg">
<g filter="url(#filter0_f_185_19)">
<path d="M460.392 302.102L588.05 172.156L415.364 56.8284L291.885 265.826L137.304 28.1319L22.1799 265.826L137.304 210.598L7 378.446L239 340.1L58.5 451.436L115 816.808L22.1799 892.078L137.304 862.284L190 816.808L353 805.832L415.364 879.533L484 846.603L542.5 552.841L754.5 628.592L575.5 879.533L684.5 823.081L805 823.081L830.5 879.533L845.5 740.493L953 846.603L1096.36 805.832L1176.67 846.603H1252L1293.5 696.586L1167 668.36L1223.5 451.436L1305.5 317.101L1213 275.284V89.2003L1096.36 289.649L1040.65 441.253L921.351 265.826L1022.55 210.598L791.837 6.47424L740.31 289.649L513.776 421.761L460.392 302.102Z" stroke="#5D8BC1" stroke-opacity="0.5" stroke-width="2"/>
</g>
<defs>
<filter id="filter0_f_185_19" x="0.64502" y="0.549591" width="1310.3" height="896.497" filterUnits="userSpaceOnUse" color-interpolation-filters="sRGB">
<feFlood flood-opacity="0" result="BackgroundImageFix"/>
<feBlend mode="normal" in="SourceGraphic" in2="BackgroundImageFix" result="shape"/>
<feGaussianBlur stdDeviation="2" result="effect1_foregroundBlur_185_19"/>
</filter>
</defs>
</svg>
