<svg width="1288" height="666" viewBox="0 0 1288 666" fill="none" xmlns="http://www.w3.org/2000/svg">
<g filter="url(#filter0_f_634_63)">
<path d="M450.98 222.986L577.114 125.849L406.49 39.6404L284.484 195.868L131.748 18.1894L17.9988 195.868L131.748 154.585L3 280.053L232.231 251.389L53.8853 334.615L109.711 607.735L17.9988 664L131.748 641.728L183.816 607.735L268.5 630.006L344.87 599.53L406.49 654.622L474.306 630.006L532.108 410.416L741.577 467.041L564.714 654.622L672.413 612.424L791.474 612.424L816.67 654.622L831.491 550.688L937.708 630.006L1079.35 599.53L1158.7 630.006H1233.14L1274.14 517.867L1149.15 496.768L1204.98 334.615L1286 234.197L1194.6 202.939V63.8387L1079.35 213.677L1024.31 327.003L906.437 195.868L1006.43 154.585L778.469 2L727.557 213.677L503.727 312.432L450.98 222.986Z" stroke="#CDC961"/>
</g>
<defs>
<filter id="filter0_f_634_63" x="0.584961" y="0.185242" width="1287.25" height="665.305" filterUnits="userSpaceOnUse" color-interpolation-filters="sRGB">
<feFlood flood-opacity="0" result="BackgroundImageFix"/>
<feBlend mode="normal" in="SourceGraphic" in2="BackgroundImageFix" result="shape"/>
<feGaussianBlur stdDeviation="0.5" result="effect1_foregroundBlur_634_63"/>
</filter>
</defs>
</svg>
