<svg width="1296" height="833" viewBox="0 0 1296 833" fill="none" xmlns="http://www.w3.org/2000/svg">
<g filter="url(#filter0_f_185_19)">
<path d="M454.98 280.396L581.114 159.782L410.49 52.7377L288.484 246.725L135.748 26.1022L21.9988 246.725L135.748 195.464L7 351.256L236.231 315.664L57.8853 419.005L113.711 758.136L21.9988 828L135.748 800.346L187.816 758.136L348.87 747.948L410.49 816.356L478.306 785.791L536.108 513.127L745.577 583.438L568.714 816.356L676.413 763.958L795.474 763.958L820.67 816.356L835.491 687.302L941.708 785.791L1083.35 747.948L1162.7 785.791H1237.14L1278.14 646.548L1153.15 620.349L1208.98 419.005L1290 294.317L1198.6 255.504V82.7846L1083.35 268.837L1028.31 409.553L910.437 246.725L1010.43 195.464L782.469 6L731.557 268.837L507.727 391.461L454.98 280.396Z" stroke="#F6AE18" stroke-width="2"/>
</g>
<defs>
<filter id="filter0_f_185_19" x="0.552246" y="0.150818" width="1294.94" height="832.821" filterUnits="userSpaceOnUse" color-interpolation-filters="sRGB">
<feFlood flood-opacity="0" result="BackgroundImageFix"/>
<feBlend mode="normal" in="SourceGraphic" in2="BackgroundImageFix" result="shape"/>
<feGaussianBlur stdDeviation="2" result="effect1_foregroundBlur_185_19"/>
</filter>
</defs>
</svg>
