<svg width="1319" height="628" viewBox="0 0 1319 628" fill="none" xmlns="http://www.w3.org/2000/svg">
<g filter="url(#filter0_f_691_85)">
<path d="M466.98 215.62L593.114 128.314L422.49 50.8309L300.484 191.247L147.748 31.5509L33.9988 191.247L147.748 154.142L19 266.912L248.231 241.149L69.8853 315.951L125.711 561.429L33.9988 612L147.748 591.982L199.816 561.429L284.5 581.447L360.87 554.055L422.49 603.572L490.306 581.447L548.108 384.081L757.577 434.975L580.714 603.572L688.413 565.644L807.474 565.644L832.67 603.572L847.491 510.156L953.708 581.447L1095.35 554.055L1174.7 581.447H1249.14L1290.14 480.657L1165.15 461.693L1220.98 315.951L1302 225.697L1210.6 197.602V72.5801L1095.35 207.253L1040.31 309.11L922.437 191.247L1022.43 154.142L794.469 17L743.557 207.253L519.727 296.014L466.98 215.62Z" stroke="#FFF500" stroke-width="2"/>
</g>
<g filter="url(#filter1_f_691_85)">
<path d="M466.98 215.62L593.114 128.314L422.49 50.8309L300.484 191.247L147.748 31.5509L33.9988 191.247L147.748 154.142L19 266.912L248.231 241.149L69.8853 315.951L125.711 561.429L33.9988 612L147.748 591.982L199.816 561.429L284.5 581.447L360.87 554.055L422.49 603.572L490.306 581.447L548.108 384.081L757.577 434.975L580.714 603.572L688.413 565.644L807.474 565.644L832.67 603.572L847.491 510.156L953.708 581.447L1095.35 554.055L1174.7 581.447H1249.14L1290.14 480.657L1165.15 461.693L1220.98 315.951L1302 225.697L1210.6 197.602V72.5801L1095.35 207.253L1040.31 309.11L922.437 191.247L1022.43 154.142L794.469 17L743.557 207.253L519.727 296.014L466.98 215.62Z" stroke="#FFF500"/>
</g>
<g filter="url(#filter2_f_691_85)">
<path d="M466.98 215.62L593.114 128.314L422.49 50.8309L300.484 191.247L147.748 31.5509L33.9988 191.247L147.748 154.142L19 266.912L248.231 241.149L69.8853 315.951L125.711 561.429L33.9988 612L147.748 591.982L199.816 561.429L284.5 581.447L360.87 554.055L422.49 603.572L490.306 581.447L548.108 384.081L757.577 434.975L580.714 603.572L688.413 565.644L807.474 565.644L832.67 603.572L847.491 510.156L953.708 581.447L1095.35 554.055L1174.7 581.447H1249.14L1290.14 480.657L1165.15 461.693L1220.98 315.951L1302 225.697L1210.6 197.602V72.5801L1095.35 207.253L1040.31 309.11L922.437 191.247L1022.43 154.142L794.469 17L743.557 207.253L519.727 296.014L466.98 215.62Z" stroke="#CDC961"/>
</g>
<defs>
<filter id="filter0_f_691_85" x="0.940918" y="0.458382" width="1317.85" height="627.526" filterUnits="userSpaceOnUse" color-interpolation-filters="sRGB">
<feFlood flood-opacity="0" result="BackgroundImageFix"/>
<feBlend mode="normal" in="SourceGraphic" in2="BackgroundImageFix" result="shape"/>
<feGaussianBlur stdDeviation="7.5" result="effect1_foregroundBlur_691_85"/>
</filter>
<filter id="filter1_f_691_85" x="9.47021" y="8.22919" width="1301.42" height="612.263" filterUnits="userSpaceOnUse" color-interpolation-filters="sRGB">
<feFlood flood-opacity="0" result="BackgroundImageFix"/>
<feBlend mode="normal" in="SourceGraphic" in2="BackgroundImageFix" result="shape"/>
<feGaussianBlur stdDeviation="4" result="effect1_foregroundBlur_691_85"/>
</filter>
<filter id="filter2_f_691_85" x="16.4702" y="15.2292" width="1287.42" height="598.263" filterUnits="userSpaceOnUse" color-interpolation-filters="sRGB">
<feFlood flood-opacity="0" result="BackgroundImageFix"/>
<feBlend mode="normal" in="SourceGraphic" in2="BackgroundImageFix" result="shape"/>
<feGaussianBlur stdDeviation="0.5" result="effect1_foregroundBlur_691_85"/>
</filter>
</defs>
</svg>
